<svg width="1242" height="1242" viewBox="0 0 1242 1242" fill="none" xmlns="http://www.w3.org/2000/svg">
<g clip-path="url(#clip0_468_360)">
<g clip-path="url(#clip1_468_360)">
<g clip-path="url(#clip2_468_360)">
<g filter="url(#filter0_d_468_360)">
<path d="M1133.91 457.518C1103.71 361.444 1046.14 274.476 968.739 210.113C929.416 179.344 878.446 166.785 829.684 164.588C820.555 164.588 810.488 164.588 801.683 164.588C668.283 171.181 543.38 233.974 437.983 312.779C437.039 313.407 437.039 314.664 437.983 315.605C481.401 363.328 522.3 413.562 561.941 464.739C562.571 465.68 563.829 465.68 564.459 465.053C649.405 404.143 738.127 347.944 833.458 303.989C834.403 303.675 835.342 303.989 835.976 304.93C866.178 363.642 765.5 458.773 724.286 492.995C632.101 568.347 526.391 641.815 404.319 651.548C381.982 653.431 359.329 650.606 337.935 645.268C281.619 630.826 237.258 583.103 219.325 528.787C210.516 500.844 210.516 470.704 215.864 442.133C225.931 390.329 252.045 340.408 288.225 296.453C370.34 188.135 517.267 115.924 685.272 115.924C853.275 115.924 814.579 127.226 871.525 147.32C872.153 145.75 872.153 146.378 873.098 143.866C802.311 106.818 722.395 86.0969 642.799 82.9567C625.495 82.9567 607.876 82.3288 591.202 83.5853C306.158 98.3416 73.3428 342.92 83.096 629.256V629.884V630.512C83.096 633.338 83.096 636.164 83.4106 638.989C83.4106 640.873 83.4106 643.07 83.4106 644.64C83.4106 649.036 84.0399 653.745 84.3545 658.141C84.3545 659.083 84.3538 660.338 84.6685 661.28C84.6685 662.223 84.6685 663.479 85.2978 664.42C85.2978 664.42 85.2978 664.734 85.2978 665.048C93.4777 808.528 171.188 931.921 320.946 954.208C356.497 958.921 392.364 958.603 427.916 956.72C618.888 942.906 818.671 842.124 939.483 693.616C993.593 625.175 1033.55 541.974 1038.59 454.064C1039.22 448.098 1038.9 442.133 1039.22 436.482C1039.22 436.482 1039.22 436.168 1039.22 435.854C1039.22 435.226 1039.84 435.854 1040.16 435.854C1041.1 436.796 1042.36 437.737 1043.31 438.679C1104.34 505.868 1142.09 591.894 1150.91 682.002C1153.42 682.002 1152.79 682.002 1155.31 682.002C1164.43 606.337 1157.51 528.787 1134.55 455.947L1133.91 457.518Z" fill="url(#paint0_linear_468_360)"/>
</g>
<g filter="url(#filter1_d_468_360)">
<path d="M579.494 1087.92C442.321 1087.92 315.531 1045.54 212.336 973.328C311.126 1087.3 457.108 1159.19 619.766 1159.19C873.347 1159.19 1086.03 984.002 1143.29 748.526C1040.72 949.468 826.786 1087.92 579.494 1087.92Z" fill="url(#paint1_linear_468_360)"/>
</g>
</g>
</g>
<g filter="url(#filter2_d_468_360)">
<mask id="path-4-outside-1_468_360" maskUnits="userSpaceOnUse" x="197" y="335" width="837" height="552" fill="black">
<rect fill="white" x="197" y="335" width="837" height="552"/>
<path d="M440.873 703.799V362.344H560.502V703.799C560.502 737.067 552.868 765.892 537.602 790.273C522.562 814.655 502.055 833.568 476.078 847.012C450.329 860.228 421.391 866.836 389.262 866.836C355.993 866.836 326.371 861.253 300.395 850.088C274.646 838.923 254.366 821.719 239.555 798.477C224.971 775.234 217.68 745.612 217.68 709.609H337.992C337.992 726.471 339.929 739.688 343.803 749.258C347.676 758.6 353.373 765.208 360.893 769.082C368.64 772.728 378.096 774.551 389.262 774.551C400.199 774.551 409.428 771.816 416.947 766.348C424.695 760.651 430.619 752.562 434.721 742.08C438.822 731.37 440.873 718.61 440.873 703.799ZM893.07 727.725C893.07 719.977 891.931 713.027 889.652 706.875C887.374 700.495 883.158 694.57 877.006 689.102C870.854 683.633 861.967 678.164 850.346 672.695C838.952 666.999 823.913 661.074 805.229 654.922C783.354 647.63 762.276 639.427 741.996 630.312C721.716 620.97 703.601 610.146 687.65 597.842C671.7 585.309 659.053 570.726 649.711 554.092C640.368 537.23 635.697 517.633 635.697 495.303C635.697 473.883 640.482 454.629 650.053 437.539C659.623 420.221 672.953 405.524 690.043 393.447C707.361 381.143 727.641 371.8 750.883 365.42C774.125 358.812 799.532 355.508 827.104 355.508C863.562 355.508 895.691 361.888 923.49 374.648C951.518 387.181 973.393 405.068 989.115 428.311C1005.07 451.325 1013.04 478.555 1013.04 510H893.754C893.754 497.467 891.133 486.416 885.893 476.846C880.88 467.275 873.246 459.756 862.992 454.287C852.738 448.818 839.864 446.084 824.369 446.084C809.33 446.084 796.684 448.363 786.43 452.92C776.176 457.477 768.428 463.63 763.188 471.377C757.947 478.896 755.326 487.214 755.326 496.328C755.326 503.848 757.377 510.684 761.479 516.836C765.808 522.76 771.846 528.343 779.594 533.584C787.569 538.825 797.139 543.838 808.305 548.623C819.698 553.408 832.458 558.079 846.586 562.637C873.018 571.068 896.488 580.524 916.996 591.006C937.732 601.26 955.163 612.995 969.291 626.211C983.646 639.199 994.47 654.01 1001.76 670.645C1009.28 687.279 1013.04 706.077 1013.04 727.041C1013.04 749.372 1008.71 769.196 1000.05 786.514C991.394 803.831 978.975 818.529 962.797 830.605C946.618 842.454 927.25 851.455 904.691 857.607C882.133 863.76 856.954 866.836 829.154 866.836C803.633 866.836 778.454 863.646 753.617 857.266C729.008 850.658 706.677 840.632 686.625 827.188C666.573 813.516 650.508 796.084 638.432 774.893C626.583 753.473 620.658 728.066 620.658 698.672H740.971C740.971 713.255 742.908 725.56 746.781 735.586C750.655 745.612 756.352 753.701 763.871 759.854C771.391 765.778 780.619 770.107 791.557 772.842C802.494 775.348 815.027 776.602 829.154 776.602C844.421 776.602 856.726 774.437 866.068 770.107C875.411 765.55 882.247 759.626 886.576 752.334C890.906 744.814 893.07 736.611 893.07 727.725Z"/>
</mask>
<path d="M440.873 703.799V362.344H560.502V703.799C560.502 737.067 552.868 765.892 537.602 790.273C522.562 814.655 502.055 833.568 476.078 847.012C450.329 860.228 421.391 866.836 389.262 866.836C355.993 866.836 326.371 861.253 300.395 850.088C274.646 838.923 254.366 821.719 239.555 798.477C224.971 775.234 217.68 745.612 217.68 709.609H337.992C337.992 726.471 339.929 739.688 343.803 749.258C347.676 758.6 353.373 765.208 360.893 769.082C368.64 772.728 378.096 774.551 389.262 774.551C400.199 774.551 409.428 771.816 416.947 766.348C424.695 760.651 430.619 752.562 434.721 742.08C438.822 731.37 440.873 718.61 440.873 703.799ZM893.07 727.725C893.07 719.977 891.931 713.027 889.652 706.875C887.374 700.495 883.158 694.57 877.006 689.102C870.854 683.633 861.967 678.164 850.346 672.695C838.952 666.999 823.913 661.074 805.229 654.922C783.354 647.63 762.276 639.427 741.996 630.312C721.716 620.97 703.601 610.146 687.65 597.842C671.7 585.309 659.053 570.726 649.711 554.092C640.368 537.23 635.697 517.633 635.697 495.303C635.697 473.883 640.482 454.629 650.053 437.539C659.623 420.221 672.953 405.524 690.043 393.447C707.361 381.143 727.641 371.8 750.883 365.42C774.125 358.812 799.532 355.508 827.104 355.508C863.562 355.508 895.691 361.888 923.49 374.648C951.518 387.181 973.393 405.068 989.115 428.311C1005.07 451.325 1013.04 478.555 1013.04 510H893.754C893.754 497.467 891.133 486.416 885.893 476.846C880.88 467.275 873.246 459.756 862.992 454.287C852.738 448.818 839.864 446.084 824.369 446.084C809.33 446.084 796.684 448.363 786.43 452.92C776.176 457.477 768.428 463.63 763.188 471.377C757.947 478.896 755.326 487.214 755.326 496.328C755.326 503.848 757.377 510.684 761.479 516.836C765.808 522.76 771.846 528.343 779.594 533.584C787.569 538.825 797.139 543.838 808.305 548.623C819.698 553.408 832.458 558.079 846.586 562.637C873.018 571.068 896.488 580.524 916.996 591.006C937.732 601.26 955.163 612.995 969.291 626.211C983.646 639.199 994.47 654.01 1001.76 670.645C1009.28 687.279 1013.04 706.077 1013.04 727.041C1013.04 749.372 1008.71 769.196 1000.05 786.514C991.394 803.831 978.975 818.529 962.797 830.605C946.618 842.454 927.25 851.455 904.691 857.607C882.133 863.76 856.954 866.836 829.154 866.836C803.633 866.836 778.454 863.646 753.617 857.266C729.008 850.658 706.677 840.632 686.625 827.188C666.573 813.516 650.508 796.084 638.432 774.893C626.583 753.473 620.658 728.066 620.658 698.672H740.971C740.971 713.255 742.908 725.56 746.781 735.586C750.655 745.612 756.352 753.701 763.871 759.854C771.391 765.778 780.619 770.107 791.557 772.842C802.494 775.348 815.027 776.602 829.154 776.602C844.421 776.602 856.726 774.437 866.068 770.107C875.411 765.55 882.247 759.626 886.576 752.334C890.906 744.814 893.07 736.611 893.07 727.725Z" fill="#1A1A1A"/>
<path d="M440.873 362.344V342.344H420.873V362.344H440.873ZM560.502 362.344H580.502V342.344H560.502V362.344ZM537.602 790.273L520.651 779.659L520.615 779.716L520.579 779.774L537.602 790.273ZM476.078 847.012L485.211 864.805L485.241 864.789L485.271 864.774L476.078 847.012ZM300.395 850.088L292.438 868.437L292.467 868.45L292.497 868.462L300.395 850.088ZM239.555 798.477L222.613 809.106L222.651 809.166L222.688 809.225L239.555 798.477ZM217.68 709.609V689.609H197.68V709.609H217.68ZM337.992 709.609H357.992V689.609H337.992V709.609ZM343.803 749.258L325.264 756.762L325.296 756.84L325.328 756.918L343.803 749.258ZM360.893 769.082L351.733 786.862L352.052 787.026L352.377 787.178L360.893 769.082ZM416.947 766.348L428.711 782.522L428.753 782.492L428.795 782.461L416.947 766.348ZM434.721 742.08L453.346 749.368L453.372 749.301L453.398 749.233L434.721 742.08ZM460.873 703.799V362.344H420.873V703.799H460.873ZM440.873 382.344H560.502V342.344H440.873V382.344ZM540.502 362.344V703.799H580.502V362.344H540.502ZM540.502 703.799C540.502 733.912 533.629 758.932 520.651 779.659L554.553 800.888C572.108 772.852 580.502 740.222 580.502 703.799H540.502ZM520.579 779.774C507.485 801.002 489.713 817.435 466.885 829.25L485.271 864.774C514.396 849.7 537.64 828.308 554.624 800.773L520.579 779.774ZM466.945 829.219C444.322 840.831 418.569 846.836 389.262 846.836V886.836C424.212 886.836 456.337 879.625 485.211 864.805L466.945 829.219ZM389.262 846.836C358.236 846.836 331.373 841.634 308.292 831.713L292.497 868.462C321.369 880.872 353.751 886.836 389.262 886.836V846.836ZM308.351 831.739C286.193 822.13 269.046 807.54 256.421 787.728L222.688 809.225C239.686 835.898 263.099 855.715 292.438 868.437L308.351 831.739ZM256.496 787.847C244.445 768.641 237.68 743.001 237.68 709.609H197.68C197.68 748.223 205.498 781.828 222.613 809.106L256.496 787.847ZM217.68 729.609H337.992V689.609H217.68V729.609ZM317.992 709.609C317.992 727.62 320.006 743.771 325.264 756.762L362.342 741.754C359.852 735.604 357.992 725.323 357.992 709.609H317.992ZM325.328 756.918C330.642 769.735 339.223 780.417 351.733 786.862L370.052 751.303C367.523 750 364.711 747.465 362.278 741.598L325.328 756.918ZM352.377 787.178C363.469 792.398 376.011 794.551 389.262 794.551V754.551C380.182 754.551 373.811 753.057 369.409 750.986L352.377 787.178ZM389.262 794.551C403.658 794.551 417.2 790.894 428.711 782.522L405.184 750.173C401.656 752.739 396.741 754.551 389.262 754.551V794.551ZM428.795 782.461C440.079 774.163 448.104 762.762 453.346 749.368L416.096 734.792C413.134 742.361 409.31 747.139 405.099 750.235L428.795 782.461ZM453.398 749.233C458.588 735.682 460.873 720.377 460.873 703.799H420.873C420.873 716.843 419.057 727.059 416.044 734.927L453.398 749.233ZM889.652 706.875L870.818 713.602L870.857 713.712L870.897 713.821L889.652 706.875ZM850.346 672.695L841.401 690.584L841.614 690.69L841.83 690.792L850.346 672.695ZM805.229 654.922L798.904 673.896L798.939 673.907L798.974 673.919L805.229 654.922ZM741.996 630.312L733.628 648.478L733.712 648.517L733.797 648.555L741.996 630.312ZM687.65 597.842L675.294 613.568L675.364 613.623L675.434 613.677L687.65 597.842ZM649.711 554.092L632.217 563.785L632.245 563.835L632.273 563.886L649.711 554.092ZM650.053 437.539L667.503 447.311L667.53 447.262L667.558 447.213L650.053 437.539ZM690.043 393.447L701.585 409.781L701.606 409.766L701.627 409.751L690.043 393.447ZM750.883 365.42L756.177 384.706L756.265 384.682L756.352 384.658L750.883 365.42ZM923.49 374.648L915.147 392.825L915.236 392.866L915.326 392.906L923.49 374.648ZM989.115 428.311L972.55 439.517L972.613 439.61L972.677 439.703L989.115 428.311ZM1013.04 510V530H1033.04V510H1013.04ZM893.754 510H873.754V530H893.754V510ZM885.893 476.846L868.176 486.126L868.262 486.29L868.351 486.452L885.893 476.846ZM763.188 471.377L779.595 482.813L779.675 482.699L779.753 482.583L763.188 471.377ZM761.479 516.836L744.838 527.93L745.076 528.288L745.331 528.636L761.479 516.836ZM779.594 533.584L768.388 550.15L768.498 550.225L768.61 550.298L779.594 533.584ZM808.305 548.623L800.426 567.006L800.493 567.035L800.56 567.063L808.305 548.623ZM846.586 562.637L840.446 581.671L840.477 581.681L840.508 581.691L846.586 562.637ZM916.996 591.006L907.894 608.815L908.012 608.875L908.131 608.934L916.996 591.006ZM969.291 626.211L955.628 640.816L955.749 640.93L955.873 641.042L969.291 626.211ZM1001.76 670.645L983.444 678.674L983.49 678.779L983.537 678.883L1001.76 670.645ZM962.797 830.605L974.614 846.741L974.688 846.687L974.761 846.633L962.797 830.605ZM753.617 857.266L748.431 876.581L748.536 876.61L748.641 876.637L753.617 857.266ZM686.625 827.188L675.358 843.712L675.423 843.756L675.487 843.799L686.625 827.188ZM638.432 774.893L620.931 784.574L620.992 784.685L621.055 784.795L638.432 774.893ZM620.658 698.672V678.672H600.658V698.672H620.658ZM740.971 698.672H760.971V678.672H740.971V698.672ZM763.871 759.854L751.206 775.333L751.349 775.449L751.494 775.563L763.871 759.854ZM791.557 772.842L786.706 792.245L786.897 792.292L787.089 792.336L791.557 772.842ZM866.068 770.107L874.478 788.254L874.658 788.17L874.837 788.083L866.068 770.107ZM886.576 752.334L903.773 762.545L903.842 762.429L903.909 762.313L886.576 752.334ZM913.07 727.725C913.07 718.026 911.643 708.666 908.407 699.929L870.897 713.821C872.219 717.388 873.07 721.929 873.07 727.725H913.07ZM908.487 700.148C904.86 689.993 898.42 681.377 890.293 674.153L863.719 704.05C867.897 707.763 869.887 710.997 870.818 713.602L908.487 700.148ZM890.293 674.153C882.143 666.909 871.362 660.481 858.862 654.599L841.83 690.792C852.572 695.847 859.564 700.357 863.719 704.05L890.293 674.153ZM859.29 654.807C846.695 648.509 830.652 642.237 811.484 635.925L798.974 673.919C817.175 679.912 831.21 685.488 841.401 690.584L859.29 654.807ZM811.553 635.948C790.291 628.861 769.841 620.9 750.195 612.07L733.797 648.555C754.711 657.954 776.416 666.399 798.904 673.896L811.553 635.948ZM750.364 612.147C731.305 603.367 714.506 593.299 699.866 582.006L675.434 613.677C692.696 626.994 712.127 638.573 733.628 648.478L750.364 612.147ZM700.007 582.115C685.991 571.103 675.124 558.497 667.149 544.298L632.273 563.886C642.983 582.955 657.409 599.515 675.294 613.568L700.007 582.115ZM667.205 544.399C659.75 530.944 655.697 514.784 655.697 495.303H615.697C615.697 520.483 620.987 543.516 632.217 563.785L667.205 544.399ZM655.697 495.303C655.697 476.977 659.758 461.141 667.503 447.311L632.603 427.767C621.207 448.116 615.697 470.79 615.697 495.303H655.697ZM667.558 447.213C675.584 432.688 686.814 420.219 701.585 409.781L678.501 377.114C659.092 390.83 643.662 407.755 632.548 427.865L667.558 447.213ZM701.627 409.751C716.801 398.97 734.89 390.55 756.177 384.706L745.588 346.133C720.391 353.05 697.921 363.315 678.459 377.144L701.627 409.751ZM756.352 384.658C777.585 378.621 801.126 375.508 827.104 375.508V335.508C797.938 335.508 770.665 339.003 745.413 346.182L756.352 384.658ZM827.104 375.508C861.227 375.508 890.419 381.474 915.147 392.825L931.834 356.472C900.963 342.302 865.897 335.508 827.104 335.508V375.508ZM915.326 392.906C940.282 404.065 959.11 419.65 972.55 439.517L1005.68 417.104C987.675 390.487 962.753 370.297 931.654 356.391L915.326 392.906ZM972.677 439.703C986.029 458.967 993.041 482.106 993.041 510H1033.04C1033.04 475.004 1024.1 443.682 1005.55 416.918L972.677 439.703ZM1013.04 490H893.754V530H1013.04V490ZM913.754 510C913.754 494.614 910.514 480.167 903.435 467.239L868.351 486.452C871.753 492.665 873.754 500.321 873.754 510H913.754ZM903.609 467.566C896.589 454.162 885.922 443.85 872.404 436.64L853.58 471.934C860.57 475.662 865.171 480.388 868.176 486.126L903.609 467.566ZM872.404 436.64C858.45 429.198 842.096 426.084 824.369 426.084V466.084C837.632 466.084 847.027 468.439 853.58 471.934L872.404 436.64ZM824.369 426.084C807.434 426.084 791.83 428.633 778.307 434.644L794.552 471.196C801.537 468.092 811.227 466.084 824.369 466.084V426.084ZM778.307 434.644C765.321 440.415 754.346 448.753 746.622 460.171L779.753 482.583C782.511 478.506 787.03 474.539 794.552 471.196L778.307 434.644ZM746.78 459.941C739.214 470.796 735.326 483.099 735.326 496.328H775.326C775.326 491.328 776.679 486.997 779.595 482.813L746.78 459.941ZM735.326 496.328C735.326 507.725 738.507 518.434 744.838 527.93L778.12 505.742C776.247 502.934 775.326 499.97 775.326 496.328H735.326ZM745.331 528.636C751.336 536.854 759.231 543.955 768.388 550.15L790.8 517.018C784.462 512.731 780.28 508.667 777.626 505.036L745.331 528.636ZM768.61 550.298C777.793 556.332 788.456 561.876 800.426 567.006L816.183 530.24C805.823 525.8 797.345 521.317 790.577 516.87L768.61 550.298ZM800.56 567.063C812.571 572.107 825.879 576.972 840.446 581.671L852.726 543.603C839.037 539.187 826.824 534.709 816.049 530.183L800.56 567.063ZM840.508 581.691C866.103 589.855 888.532 598.918 907.894 608.815L926.098 573.197C904.445 562.13 879.933 552.281 852.664 543.583L840.508 581.691ZM908.131 608.934C927.445 618.485 943.176 629.168 955.628 640.816L982.954 611.606C967.151 596.822 948.018 584.035 925.861 573.078L908.131 608.934ZM955.873 641.042C968.274 652.261 977.361 664.796 983.444 678.674L1020.08 662.615C1011.58 643.225 999.019 626.137 982.709 611.38L955.873 641.042ZM983.537 678.883C989.725 692.571 993.041 708.499 993.041 727.041H1033.04C1033.04 703.656 1028.84 681.986 1019.99 662.406L983.537 678.883ZM993.041 727.041C993.041 746.744 989.236 763.426 982.164 777.569L1017.94 795.458C1028.19 774.966 1033.04 752 1033.04 727.041H993.041ZM982.164 777.569C974.961 791.976 964.621 804.286 950.833 814.578L974.761 846.633C993.329 832.771 1007.83 815.687 1017.94 795.458L982.164 777.569ZM950.979 814.47C937.073 824.655 920.013 832.698 899.429 838.312L909.954 876.903C934.487 870.212 956.164 860.254 974.614 846.741L950.979 814.47ZM899.429 838.312C878.872 843.918 855.5 846.836 829.154 846.836V886.836C858.407 886.836 885.393 883.601 909.954 876.903L899.429 838.312ZM829.154 846.836C805.32 846.836 781.813 843.859 758.593 837.895L748.641 876.637C775.096 883.433 801.947 886.836 829.154 886.836V846.836ZM758.804 837.95C736.195 831.879 715.894 822.732 697.763 810.576L675.487 843.799C697.46 858.531 721.821 869.436 748.431 876.581L758.804 837.95ZM697.892 810.663C680.366 798.714 666.386 783.552 655.808 764.99L621.055 784.795C634.631 808.616 652.779 828.317 675.358 843.712L697.892 810.663ZM655.932 765.211C646.022 747.297 640.658 725.358 640.658 698.672H600.658C600.658 730.775 607.143 759.649 620.931 784.574L655.932 765.211ZM620.658 718.672H740.971V678.672H620.658V718.672ZM720.971 698.672C720.971 714.897 723.108 729.809 728.125 742.794L765.437 728.378C762.707 721.311 760.971 711.614 760.971 698.672H720.971ZM728.125 742.794C733.111 755.698 740.73 766.761 751.206 775.333L776.536 744.374C771.973 740.641 768.199 735.526 765.437 728.378L728.125 742.794ZM751.494 775.563C761.592 783.52 773.508 788.945 786.706 792.245L796.407 753.439C787.73 751.27 781.189 748.036 776.249 744.144L751.494 775.563ZM787.089 792.336C799.812 795.252 813.891 796.602 829.154 796.602V756.602C816.162 756.602 805.176 755.445 796.024 753.347L787.089 792.336ZM829.154 796.602C846.043 796.602 861.542 794.248 874.478 788.254L857.659 751.961C851.91 754.626 842.8 756.602 829.154 756.602V796.602ZM874.837 788.083C886.889 782.204 897.043 773.88 903.773 762.545L869.379 742.123C867.451 745.371 863.932 748.897 857.3 752.132L874.837 788.083ZM903.909 762.313C910.029 751.682 913.07 740.025 913.07 727.725H873.07C873.07 733.197 871.782 737.947 869.244 742.355L903.909 762.313Z" fill="url(#paint2_linear_468_360)" mask="url(#path-4-outside-1_468_360)"/>
</g>
</g>
<defs>
<filter id="filter0_d_468_360" x="-17.1997" y="-17.2002" width="1276.4" height="1075.21" filterUnits="userSpaceOnUse" color-interpolation-filters="sRGB">
<feFlood flood-opacity="0" result="BackgroundImageFix"/>
<feColorMatrix in="SourceAlpha" type="matrix" values="0 0 0 0 0 0 0 0 0 0 0 0 0 0 0 0 0 0 127 0" result="hardAlpha"/>
<feOffset/>
<feGaussianBlur stdDeviation="50"/>
<feComposite in2="hardAlpha" operator="out"/>
<feColorMatrix type="matrix" values="0 0 0 0 0.941176 0 0 0 0 0.858824 0 0 0 0 0.309804 0 0 0 0.6 0"/>
<feBlend mode="normal" in2="BackgroundImageFix" result="effect1_dropShadow_468_360"/>
<feBlend mode="normal" in="SourceGraphic" in2="effect1_dropShadow_468_360" result="shape"/>
</filter>
<filter id="filter1_d_468_360" x="112.336" y="648.526" width="1130.95" height="610.667" filterUnits="userSpaceOnUse" color-interpolation-filters="sRGB">
<feFlood flood-opacity="0" result="BackgroundImageFix"/>
<feColorMatrix in="SourceAlpha" type="matrix" values="0 0 0 0 0 0 0 0 0 0 0 0 0 0 0 0 0 0 127 0" result="hardAlpha"/>
<feOffset/>
<feGaussianBlur stdDeviation="50"/>
<feComposite in2="hardAlpha" operator="out"/>
<feColorMatrix type="matrix" values="0 0 0 0 0.941176 0 0 0 0 0.858824 0 0 0 0 0.309804 0 0 0 0.6 0"/>
<feBlend mode="normal" in2="BackgroundImageFix" result="effect1_dropShadow_468_360"/>
<feBlend mode="normal" in="SourceGraphic" in2="effect1_dropShadow_468_360" result="shape"/>
</filter>
<filter id="filter2_d_468_360" x="97.6797" y="235.508" width="1035.36" height="751.328" filterUnits="userSpaceOnUse" color-interpolation-filters="sRGB">
<feFlood flood-opacity="0" result="BackgroundImageFix"/>
<feColorMatrix in="SourceAlpha" type="matrix" values="0 0 0 0 0 0 0 0 0 0 0 0 0 0 0 0 0 0 127 0" result="hardAlpha"/>
<feOffset/>
<feGaussianBlur stdDeviation="50"/>
<feComposite in2="hardAlpha" operator="out"/>
<feColorMatrix type="matrix" values="0 0 0 0 0.941176 0 0 0 0 0.858824 0 0 0 0 0.309804 0 0 0 0.6 0"/>
<feBlend mode="normal" in2="BackgroundImageFix" result="effect1_dropShadow_468_360"/>
<feBlend mode="normal" in="SourceGraphic" in2="effect1_dropShadow_468_360" result="shape"/>
</filter>
<linearGradient id="paint0_linear_468_360" x1="620.999" y1="82.7998" x2="620.999" y2="958.008" gradientUnits="userSpaceOnUse">
<stop stop-color="#F0DB4F"/>
<stop offset="1" stop-color="#F0DB4F"/>
</linearGradient>
<linearGradient id="paint1_linear_468_360" x1="677.812" y1="748.526" x2="677.812" y2="1159.19" gradientUnits="userSpaceOnUse">
<stop stop-color="#F0DB4F"/>
<stop offset="1" stop-color="#F0DB4F"/>
</linearGradient>
<linearGradient id="paint2_linear_468_360" x1="621" y1="0" x2="621" y2="1242" gradientUnits="userSpaceOnUse">
<stop stop-color="#F0DB4F"/>
<stop offset="1" stop-color="#F0DB4F"/>
</linearGradient>
<clipPath id="clip0_468_360">
<rect width="1242" height="1242" rx="150" fill="white"/>
</clipPath>
<clipPath id="clip1_468_360">
<rect width="1242" height="1242" fill="white"/>
</clipPath>
<clipPath id="clip2_468_360">
<rect width="1242" height="1242" fill="white"/>
</clipPath>
</defs>
</svg>
